# xmcd CD database file
#
# Track frame offsets:
#	150
#	27304
#	49110
#	55214
#	70048
#	95220
#	122309
#	145747
#	156898
#	184036
#	200835
#	227713
#
# Disc length: 3349 seconds
#
# Revision: 0
# Processed by: cddbd v1.5.2PL0 Copyright (c) Steve Scherf et al.
# Submitted via: CDex 1.51
#
DISCID=a60d130c
DTITLE=Blind Guardian - Tales From The Twilight World
DYEAR=1990
DGENRE=Power Metal
TTITLE0=Traveler In Time
TTITLE1=Welcome To Dying
TTITLE2=Weird Dreams
TTITLE3=Lord Of The Rings
TTITLE4=Goodbye My Friend
TTITLE5=Lost In The Twilight Hall
TTITLE6=Tommyknockers
TTITLE7=Altair 4
TTITLE8=The Last Candle
TTITLE9=Run For The Night (live)
TTITLE10=Lost In The Twilight Hall (demo)
TTITLE11=Tommyknockers (demo)
EXTD=YEAR: 1990
EXTT0=
EXTT1=
EXTT2=
EXTT3=
EXTT4=
EXTT5=
EXTT6=
EXTT7=
EXTT8=
EXTT9=
EXTT10=
EXTT11=
PLAYORDER=
